<svg width="24" height="25" viewBox="0 0 24 25" fill="none" xmlns="http://www.w3.org/2000/svg">
<g id="envelope-regular (1) 1" clip-path="url(#clip0_1_37)">
<path id="Vector" d="M2.99976 6.12109C2.58726 6.12109 2.24976 6.45859 2.24976 6.87109V7.90703L10.3357 14.5445C11.306 15.3414 12.6982 15.3414 13.6685 14.5445L21.7498 7.90703V6.87109C21.7498 6.45859 21.4123 6.12109 20.9998 6.12109H2.99976ZM2.24976 10.818V18.8711C2.24976 19.2836 2.58726 19.6211 2.99976 19.6211H20.9998C21.4123 19.6211 21.7498 19.2836 21.7498 18.8711V10.818L15.0935 16.2836C13.2935 17.7602 10.7013 17.7602 8.90601 16.2836L2.24976 10.818ZM-0.000244141 6.87109C-0.000244141 5.21641 1.34507 3.87109 2.99976 3.87109H20.9998C22.6544 3.87109 23.9998 5.21641 23.9998 6.87109V18.8711C23.9998 20.5258 22.6544 21.8711 20.9998 21.8711H2.99976C1.34507 21.8711 -0.000244141 20.5258 -0.000244141 18.8711V6.87109Z" fill="white"/>
</g>
<defs>
<clipPath id="clip0_1_37">
<rect width="24" height="24" fill="white" transform="translate(-0.000244141 0.871094)"/>
</clipPath>
</defs>
</svg>
