<svg width="24" height="28" viewBox="0 0 24 28" fill="none" xmlns="http://www.w3.org/2000/svg">
<g id="instagram (1) 1" clip-path="url(#clip0_1_25)">
<path id="Vector" d="M12.0051 8.30665C8.59796 8.30665 5.84975 11.0119 5.84975 14.3658C5.84975 17.7197 8.59796 20.425 12.0051 20.425C15.4122 20.425 18.1605 17.7197 18.1605 14.3658C18.1605 11.0119 15.4122 8.30665 12.0051 8.30665ZM12.0051 18.3051C9.80332 18.3051 8.00332 16.5385 8.00332 14.3658C8.00332 12.1932 9.79796 10.4266 12.0051 10.4266C14.2122 10.4266 16.0069 12.1932 16.0069 14.3658C16.0069 16.5385 14.2069 18.3051 12.0051 18.3051ZM19.848 8.0588C19.848 8.84454 19.2051 9.47208 18.4122 9.47208C17.614 9.47208 16.9765 8.83927 16.9765 8.0588C16.9765 7.27833 17.6194 6.64552 18.4122 6.64552C19.2051 6.64552 19.848 7.27833 19.848 8.0588ZM23.9247 9.49318C23.8337 7.60001 23.3944 5.92306 21.9855 4.54142C20.5819 3.15978 18.8783 2.72736 16.9551 2.63243C14.973 2.52169 9.03189 2.52169 7.04975 2.63243C5.13189 2.72208 3.42832 3.1545 2.01939 4.53614C0.61046 5.91779 0.176531 7.59474 0.0801025 9.4879C-0.0323975 11.4391 -0.0323975 17.2873 0.0801025 19.2385C0.171174 21.1317 0.61046 22.8086 2.01939 24.1902C3.42832 25.5719 5.12653 26.0043 7.04975 26.0992C9.03189 26.21 14.973 26.21 16.9551 26.0992C18.8783 26.0096 20.5819 25.5772 21.9855 24.1902C23.389 22.8086 23.8283 21.1317 23.9247 19.2385C24.0372 17.2873 24.0372 11.4443 23.9247 9.49318ZM21.364 21.332C20.9462 22.3656 20.1372 23.1619 19.0819 23.5785C17.5015 24.1955 13.7515 24.0531 12.0051 24.0531C10.2587 24.0531 6.50332 24.1902 4.92832 23.5785C3.87832 23.1672 3.06939 22.3709 2.64617 21.332C2.01939 19.7764 2.16403 16.085 2.16403 14.3658C2.16403 12.6467 2.02475 8.95001 2.64617 7.39962C3.06403 6.36603 3.87296 5.56974 4.92832 5.15314C6.50867 4.53614 10.2587 4.67853 12.0051 4.67853C13.7515 4.67853 17.5069 4.54142 19.0819 5.15314C20.1319 5.56447 20.9408 6.36075 21.364 7.39962C21.9908 8.95529 21.8462 12.6467 21.8462 14.3658C21.8462 16.085 21.9908 19.7817 21.364 21.332Z" fill="white"/>
</g>
<defs>
<clipPath id="clip0_1_25">
<rect width="24" height="27" fill="white" transform="translate(-0.000244141 0.871094)"/>
</clipPath>
</defs>
</svg>
