<svg width="24" height="25" viewBox="0 0 24 25" fill="none" xmlns="http://www.w3.org/2000/svg">
<g id="linkedin (1) 2" clip-path="url(#clip0_1_29)">
<path id="Vector" d="M22.2855 0.871094H1.70868C0.765827 0.871094 -0.000244141 1.64788 -0.000244141 2.60145V23.1407C-0.000244141 24.0943 0.765827 24.8711 1.70868 24.8711H22.2855C23.2283 24.8711 23.9998 24.0943 23.9998 23.1407V2.60145C23.9998 1.64788 23.2283 0.871094 22.2855 0.871094ZM7.25333 21.4425H3.69618V9.98895H7.25868V21.4425H7.25333ZM5.47476 8.42467C4.33368 8.42467 3.41226 7.49788 3.41226 6.36217C3.41226 5.22645 4.33368 4.29967 5.47476 4.29967C6.61047 4.29967 7.53726 5.22645 7.53726 6.36217C7.53726 7.50324 6.61583 8.42467 5.47476 8.42467ZM20.5873 21.4425H17.0301V15.8711C17.0301 14.5425 17.0033 12.8336 15.1819 12.8336C13.3283 12.8336 13.0444 14.28 13.0444 15.7747V21.4425H9.48726V9.98895H12.8998V11.5532H12.948C13.4248 10.6532 14.5873 9.70502 16.3176 9.70502C19.9176 9.70502 20.5873 12.0782 20.5873 15.1639V21.4425Z" fill="white"/>
</g>
<defs>
<clipPath id="clip0_1_29">
<rect width="24" height="24" fill="white" transform="translate(-0.000244141 0.871094)"/>
</clipPath>
</defs>
</svg>
