<svg width="24" height="33" viewBox="0 0 24 33" fill="none" xmlns="http://www.w3.org/2000/svg">
<g id="location-dot-solid 1" clip-path="url(#clip0_1_43)">
<path id="Vector" d="M13.481 32.0711C16.6873 28.0586 23.9998 18.3336 23.9998 12.8711C23.9998 6.24609 18.6248 0.871094 11.9998 0.871094C5.37476 0.871094 -0.000244141 6.24609 -0.000244141 12.8711C-0.000244141 18.3336 7.31226 28.0586 10.5185 32.0711C11.2873 33.0273 12.7123 33.0273 13.481 32.0711ZM11.9998 8.87109C13.0606 8.87109 14.078 9.29252 14.8282 10.0427C15.5783 10.7928 15.9998 11.8102 15.9998 12.8711C15.9998 13.932 15.5783 14.9494 14.8282 15.6995C14.078 16.4497 13.0606 16.8711 11.9998 16.8711C10.9389 16.8711 9.92147 16.4497 9.17133 15.6995C8.42118 14.9494 7.99976 13.932 7.99976 12.8711C7.99976 11.8102 8.42118 10.7928 9.17133 10.0427C9.92147 9.29252 10.9389 8.87109 11.9998 8.87109Z" fill="white"/>
</g>
<defs>
<clipPath id="clip0_1_43">
<rect width="24" height="32" fill="white" transform="translate(-0.000244141 0.871094)"/>
</clipPath>
</defs>
</svg>
