<svg width="228" height="923" viewBox="0 0 228 923" fill="none" xmlns="http://www.w3.org/2000/svg">
<mask id="path-1-outside-1_378_979" maskUnits="userSpaceOnUse" x="14" y="29" width="185" height="865" fill="black">
<rect fill="white" x="14" y="29" width="185" height="865"/>
<path d="M193 845.645V877.575H65.486L50.654 884.373L50.654 813.921L65.486 804.857H112.042L137.998 852.443H178.168L193 845.645ZM71.46 852.443H113.072L100.506 829.989H71.46V852.443ZM193 760.147V792.077H65.486L50.654 798.875V728.423L65.486 719.359H112.042L123.578 741.401L182.494 719.565L193 712.767V740.989L135.114 763.031L137.38 766.945H178.168L193 760.147ZM71.46 766.945H113.072L100.506 744.491H71.46V766.945ZM193 633.861V706.579H65.486L50.654 713.377L50.654 642.925L65.486 633.861H82.996V658.993H71.46V681.447H103.596V642.307L124.402 653.431V681.447H172.194V658.993H145.002V633.861H193ZM178.168 548.569L193 557.633L193 612.017L178.168 621.081H132.23L149.74 595.949H172.194V573.701H138.616L112.042 621.081H65.486L50.654 612.017V557.633L65.486 548.569H101.536L84.232 573.701H71.46V595.949H99.682L126.256 548.569H178.168ZM193 510.652V535.784H65.486L50.654 542.582V517.244L65.486 510.652H193ZM65.486 425.246H178.168L193 434.31V497.964H65.486L50.654 504.762L50.654 434.31L65.486 425.246ZM71.46 472.832H172.194V450.378H71.46V472.832ZM41.384 381.36V403.814L20.578 390.424V361.79L41.384 348.4V370.854L33.144 376.21L41.384 381.36ZM193 339.748V412.466H65.486L50.654 419.264V348.812L65.486 339.748H82.996V364.88H71.46L71.46 387.334H103.596L103.596 348.194L124.402 359.318L124.402 387.334H172.194V364.88H145.002V339.748H193ZM193 301.836V326.968H65.486L50.654 333.766V301.836L63.22 279.382H50.654V263.314L65.486 254.25H193V279.382H88.764L76.404 301.836H193ZM145.002 168.751H178.168L193 177.815V232.405L178.168 241.469H65.486L50.654 232.405V177.815L65.486 168.751H98.652V193.883H71.46V216.337H172.194V193.883H145.002V168.751ZM193 130.839V155.971H65.486L50.654 162.769V137.431L65.486 130.839H193ZM71.46 93.0191H103.596V70.5651H71.46V93.0191ZM178.168 93.0191L193 86.2211V118.151H65.486L50.654 109.087V54.4971L65.486 45.4331H178.168L193 38.6351V70.5651H124.402V93.0191H178.168Z"/>
</mask>
<path d="M193 845.645H199V836.295L190.5 840.191L193 845.645ZM193 877.575V883.575H199V877.575H193ZM65.486 877.575V871.575H64.1765L62.9861 872.121L65.486 877.575ZM50.654 884.373H44.654V893.723L53.1539 889.827L50.654 884.373ZM50.654 813.921L47.5253 808.801L44.654 810.556V813.921H50.654ZM65.486 804.857V798.857H63.7978L62.3573 799.737L65.486 804.857ZM112.042 804.857L117.309 801.984L115.604 798.857H112.042V804.857ZM137.998 852.443L132.731 855.316L134.436 858.443H137.998V852.443ZM178.168 852.443V858.443H179.478L180.668 857.897L178.168 852.443ZM71.46 852.443H65.46V858.443H71.46V852.443ZM113.072 852.443V858.443H123.305L118.308 849.513L113.072 852.443ZM100.506 829.989L105.742 827.059L104.024 823.989H100.506V829.989ZM71.46 829.989V823.989H65.46V829.989H71.46ZM187 845.645V877.575H199V845.645H187ZM193 871.575H65.486V883.575H193V871.575ZM62.9861 872.121L48.1541 878.919L53.1539 889.827L67.9859 883.029L62.9861 872.121ZM56.654 884.373L56.654 813.921H44.654L44.654 884.373H56.654ZM53.7827 819.041L68.6147 809.977L62.3573 799.737L47.5253 808.801L53.7827 819.041ZM65.486 810.857H112.042V798.857H65.486V810.857ZM106.775 807.73L132.731 855.316L143.265 849.57L117.309 801.984L106.775 807.73ZM137.998 858.443H178.168V846.443H137.998V858.443ZM180.668 857.897L195.5 851.099L190.5 840.191L175.668 846.989L180.668 857.897ZM71.46 858.443H113.072V846.443H71.46V858.443ZM118.308 849.513L105.742 827.059L95.2701 832.919L107.836 855.373L118.308 849.513ZM100.506 823.989H71.46V835.989H100.506V823.989ZM65.46 829.989V852.443H77.46V829.989H65.46ZM193 760.147H199V750.797L190.5 754.693L193 760.147ZM193 792.077V798.077H199V792.077H193ZM65.486 792.077V786.077H64.1765L62.9861 786.623L65.486 792.077ZM50.654 798.875H44.654V808.225L53.1539 804.329L50.654 798.875ZM50.654 728.423L47.5253 723.303L44.654 725.058V728.423H50.654ZM65.486 719.359V713.359H63.7978L62.3573 714.239L65.486 719.359ZM112.042 719.359L117.358 716.577L115.674 713.359H112.042V719.359ZM123.578 741.401L118.262 744.183L120.711 748.862L125.663 747.027L123.578 741.401ZM182.494 719.565L184.579 725.191L185.199 724.961L185.754 724.602L182.494 719.565ZM193 712.767H199V701.738L189.74 707.729L193 712.767ZM193 740.989L195.135 746.596L199 745.124V740.989H193ZM135.114 763.031L132.979 757.424L126.388 759.933L129.921 766.037L135.114 763.031ZM137.38 766.945L132.187 769.951L133.921 772.945H137.38V766.945ZM178.168 766.945V772.945H179.478L180.668 772.399L178.168 766.945ZM71.46 766.945H65.46V772.945H71.46V766.945ZM113.072 766.945V772.945H123.305L118.308 764.015L113.072 766.945ZM100.506 744.491L105.742 741.561L104.024 738.491H100.506L100.506 744.491ZM71.46 744.491L71.46 738.491H65.46L65.46 744.491H71.46ZM187 760.147V792.077H199V760.147H187ZM193 786.077H65.486V798.077H193V786.077ZM62.9861 786.623L48.1541 793.421L53.1539 804.329L67.9859 797.531L62.9861 786.623ZM56.654 798.875V728.423H44.654V798.875H56.654ZM53.7827 733.543L68.6147 724.479L62.3573 714.239L47.5253 723.303L53.7827 733.543ZM65.486 725.359H112.042V713.359H65.486V725.359ZM106.726 722.141L118.262 744.183L128.894 738.619L117.358 716.577L106.726 722.141ZM125.663 747.027L184.579 725.191L180.409 713.939L121.493 735.775L125.663 747.027ZM185.754 724.602L196.26 717.804L189.74 707.729L179.234 714.527L185.754 724.602ZM187 712.767V740.989H199V712.767H187ZM190.865 735.382L132.979 757.424L137.249 768.638L195.135 746.596L190.865 735.382ZM129.921 766.037L132.187 769.951L142.573 763.939L140.307 760.025L129.921 766.037ZM137.38 772.945H178.168V760.945H137.38V772.945ZM180.668 772.399L195.5 765.601L190.5 754.693L175.668 761.49L180.668 772.399ZM71.46 772.945H113.072V760.945H71.46V772.945ZM118.308 764.015L105.742 741.561L95.2701 747.421L107.836 769.875L118.308 764.015ZM100.506 738.491H71.46L71.46 750.491H100.506L100.506 738.491ZM65.46 744.491V766.945H77.46V744.491H65.46ZM193 633.861H199V627.861H193V633.861ZM193 706.579V712.579H199V706.579H193ZM65.486 706.579V700.579H64.1765L62.9861 701.124L65.486 706.579ZM50.654 713.377H44.654V722.727L53.1539 718.831L50.654 713.377ZM50.654 642.925L47.5253 637.805L44.654 639.56V642.925H50.654ZM65.486 633.861V627.861H63.7978L62.3573 628.741L65.486 633.861ZM82.996 633.861H88.996V627.861H82.996V633.861ZM82.996 658.993V664.993H88.996V658.993H82.996ZM71.46 658.993V652.993H65.46V658.993H71.46ZM71.46 681.447H65.46V687.447H71.46V681.447ZM103.596 681.447V687.447H109.596V681.447H103.596ZM103.596 642.307L106.425 637.016L97.596 632.295V642.307H103.596ZM124.402 653.431H130.402V649.835L127.231 648.14L124.402 653.431ZM124.402 681.447H118.402V687.447H124.402V681.447ZM172.194 681.447V687.447H178.194V681.447H172.194ZM172.194 658.993H178.194V652.993H172.194V658.993ZM145.002 658.993H139.002V664.993H145.002V658.993ZM145.002 633.861V627.861H139.002V633.861H145.002ZM187 633.861V706.579H199V633.861H187ZM193 700.579H65.486V712.579H193V700.579ZM62.9861 701.124L48.1541 707.922L53.1539 718.831L67.9859 712.033L62.9861 701.124ZM56.654 713.377L56.654 642.925H44.654L44.654 713.377H56.654ZM53.7827 648.045L68.6147 638.981L62.3573 628.741L47.5253 637.805L53.7827 648.045ZM65.486 639.861H82.996V627.861H65.486V639.861ZM76.996 633.861V658.993H88.996V633.861H76.996ZM82.996 652.993H71.46V664.993H82.996V652.993ZM65.46 658.993V681.447H77.46V658.993H65.46ZM71.46 687.447H103.596V675.447H71.46V687.447ZM109.596 681.447V642.307H97.596V681.447H109.596ZM100.767 647.598L121.573 658.722L127.231 648.14L106.425 637.016L100.767 647.598ZM118.402 653.431V681.447H130.402V653.431H118.402ZM124.402 687.447H172.194V675.447H124.402V687.447ZM178.194 681.447V658.993H166.194V681.447H178.194ZM172.194 652.993H145.002V664.993H172.194V652.993ZM151.002 658.993V633.861H139.002V658.993H151.002ZM145.002 639.861H193V627.861H145.002V639.861ZM178.168 548.569L181.297 543.449L179.856 542.569H178.168V548.569ZM193 557.633H199V554.268L196.129 552.513L193 557.633ZM193 612.017L196.129 617.136L199 615.382V612.017H193ZM178.168 621.081V627.081H179.856L181.297 626.2L178.168 621.081ZM132.23 621.081L127.307 617.651L120.737 627.081H132.23V621.081ZM149.74 595.949V589.949H146.608L144.817 592.519L149.74 595.949ZM172.194 595.949V601.949H178.194V595.949H172.194ZM172.194 573.701H178.194V567.701H172.194V573.701ZM138.616 573.701V567.701H135.102L133.383 570.766L138.616 573.701ZM112.042 621.081V627.081H115.556L117.275 624.016L112.042 621.081ZM65.486 621.081L62.3573 626.2L63.7978 627.081H65.486V621.081ZM50.654 612.017H44.654V615.382L47.5253 617.136L50.654 612.017ZM50.654 557.633L47.5253 552.513L44.654 554.268V557.633H50.654ZM65.486 548.569V542.569H63.7978L62.3573 543.449L65.486 548.569ZM101.536 548.569L106.478 551.971L112.952 542.569H101.536V548.569ZM84.232 573.701V579.701H87.3855L89.1739 577.103L84.232 573.701ZM71.46 573.701V567.701H65.46V573.701H71.46ZM71.46 595.949H65.46V601.949H71.46V595.949ZM99.682 595.949V601.949H103.196L104.915 598.884L99.682 595.949ZM126.256 548.569V542.569H122.742L121.023 545.634L126.256 548.569ZM175.039 553.688L189.871 562.752L196.129 552.513L181.297 543.449L175.039 553.688ZM187 557.633L187 612.017H199L199 557.633H187ZM189.871 606.897L175.039 615.961L181.297 626.2L196.129 617.136L189.871 606.897ZM178.168 615.081H132.23V627.081H178.168V615.081ZM137.153 624.511L154.663 599.379L144.817 592.519L127.307 617.651L137.153 624.511ZM149.74 601.949H172.194V589.949H149.74V601.949ZM178.194 595.949V573.701H166.194V595.949H178.194ZM172.194 567.701H138.616V579.701H172.194V567.701ZM133.383 570.766L106.809 618.146L117.275 624.016L143.849 576.636L133.383 570.766ZM112.042 615.081H65.486V627.081H112.042V615.081ZM68.6147 615.961L53.7827 606.897L47.5253 617.136L62.3573 626.2L68.6147 615.961ZM56.654 612.017V557.633H44.654V612.017H56.654ZM53.7827 562.752L68.6147 553.688L62.3573 543.449L47.5253 552.513L53.7827 562.752ZM65.486 554.569H101.536V542.569H65.486V554.569ZM96.5941 545.166L79.2901 570.298L89.1739 577.103L106.478 551.971L96.5941 545.166ZM84.232 567.701H71.46V579.701H84.232V567.701ZM65.46 573.701V595.949H77.46V573.701H65.46ZM71.46 601.949H99.682V589.949H71.46V601.949ZM104.915 598.884L131.489 551.504L121.023 545.634L94.4489 593.014L104.915 598.884ZM126.256 554.569H178.168V542.569H126.256V554.569ZM193 510.652H199V504.652H193V510.652ZM193 535.784V541.784H199V535.784H193ZM65.486 535.784V529.784H64.1765L62.9861 530.33L65.486 535.784ZM50.654 542.582H44.654V551.932L53.1539 548.036L50.654 542.582ZM50.654 517.244L48.2172 511.761L44.654 513.345V517.244H50.654ZM65.486 510.652V504.652H64.2127L63.0492 505.169L65.486 510.652ZM187 510.652V535.784H199V510.652H187ZM193 529.784H65.486V541.784H193V529.784ZM62.9861 530.33L48.1541 537.128L53.1539 548.036L67.9859 541.238L62.9861 530.33ZM56.654 542.582V517.244H44.654V542.582H56.654ZM53.0908 522.727L67.9228 516.135L63.0492 505.169L48.2172 511.761L53.0908 522.727ZM65.486 516.652H193V504.652H65.486V516.652ZM65.486 425.246V419.246H63.7978L62.3573 420.126L65.486 425.246ZM178.168 425.246L181.297 420.126L179.856 419.246H178.168V425.246ZM193 434.31H199V430.945L196.129 429.19L193 434.31ZM193 497.964V503.964H199V497.964H193ZM65.486 497.964V491.964H64.1765L62.9861 492.509L65.486 497.964ZM50.654 504.762H44.654V514.112L53.1539 510.216L50.654 504.762ZM50.654 434.31L47.5253 429.19L44.654 430.945V434.31H50.654ZM71.46 472.832H65.46V478.832H71.46V472.832ZM172.194 472.832V478.832H178.194V472.832H172.194ZM172.194 450.378H178.194V444.378H172.194V450.378ZM71.46 450.378V444.378H65.46V450.378H71.46ZM65.486 431.246H178.168V419.246H65.486V431.246ZM175.039 430.365L189.871 439.429L196.129 429.19L181.297 420.126L175.039 430.365ZM187 434.31V497.964H199V434.31H187ZM193 491.964H65.486V503.964H193V491.964ZM62.9861 492.509L48.1541 499.307L53.1539 510.216L67.9859 503.418L62.9861 492.509ZM56.654 504.762L56.654 434.31H44.654L44.654 504.762H56.654ZM53.7827 439.429L68.6147 430.365L62.3573 420.126L47.5253 429.19L53.7827 439.429ZM71.46 478.832H172.194V466.832H71.46V478.832ZM178.194 472.832V450.378H166.194V472.832H178.194ZM172.194 444.378H71.46V456.378H172.194V444.378ZM65.46 450.378V472.832H77.46V450.378H65.46ZM41.384 381.36H47.384V378.034L44.564 376.272L41.384 381.36ZM41.384 403.814L38.1369 408.859L47.384 414.81V403.814H41.384ZM20.578 390.424H14.578V393.697L17.3309 395.469L20.578 390.424ZM20.578 361.79L17.3309 356.744L14.578 358.516L14.578 361.79H20.578ZM41.384 348.4H47.384V337.403L38.1369 343.354L41.384 348.4ZM41.384 370.854L44.6539 375.884L47.384 374.11V370.854H41.384ZM33.144 376.21L29.8741 371.179L21.982 376.309L29.964 381.298L33.144 376.21ZM193 339.748H199V333.748H193V339.748ZM193 412.466V418.466H199V412.466H193ZM65.486 412.466V406.466H64.1765L62.9861 407.011L65.486 412.466ZM50.654 419.264H44.654V428.614L53.1539 424.718L50.654 419.264ZM50.654 348.812L47.5253 343.692L44.654 345.447V348.812H50.654ZM65.486 339.748V333.748H63.7978L62.3573 334.628L65.486 339.748ZM82.996 339.748H88.996V333.748H82.996V339.748ZM82.996 364.88V370.88H88.996V364.88H82.996ZM71.46 364.88V358.88H65.46V364.88H71.46ZM71.46 387.334H65.46V393.334H71.46V387.334ZM103.596 387.334V393.334H109.596V387.334H103.596ZM103.596 348.194L106.425 342.902L97.596 338.182V348.194H103.596ZM124.402 359.318H130.402V355.722L127.231 354.026L124.402 359.318ZM124.402 387.334H118.402V393.334H124.402V387.334ZM172.194 387.334V393.334H178.194V387.334H172.194ZM172.194 364.88H178.194V358.88H172.194V364.88ZM145.002 364.88H139.002V370.88H145.002V364.88ZM145.002 339.748V333.748H139.002V339.748H145.002ZM35.384 381.36V403.814H47.384V381.36H35.384ZM44.6311 398.768L23.8251 385.378L17.3309 395.469L38.1369 408.859L44.6311 398.768ZM26.578 390.424V361.79H14.578V390.424H26.578ZM23.8251 366.835L44.6311 353.445L38.1369 343.354L17.3309 356.744L23.8251 366.835ZM35.384 348.4V370.854H47.384V348.4H35.384ZM38.1141 365.823L29.8741 371.179L36.4139 381.24L44.6539 375.884L38.1141 365.823ZM29.964 381.298L38.204 386.448L44.564 376.272L36.324 371.122L29.964 381.298ZM187 339.748V412.466H199V339.748H187ZM193 406.466H65.486V418.466H193V406.466ZM62.9861 407.011L48.1541 413.809L53.1539 424.718L67.9859 417.92L62.9861 407.011ZM56.654 419.264V348.812H44.654V419.264H56.654ZM53.7827 353.931L68.6147 344.867L62.3573 334.628L47.5253 343.692L53.7827 353.931ZM65.486 345.748H82.996V333.748H65.486V345.748ZM76.996 339.748V364.88H88.996V339.748H76.996ZM82.996 358.88H71.46V370.88H82.996V358.88ZM65.46 364.88L65.46 387.334H77.46L77.46 364.88H65.46ZM71.46 393.334H103.596L103.596 381.334H71.46L71.46 393.334ZM109.596 387.334L109.596 348.194H97.596L97.596 387.334H109.596ZM100.767 353.485L121.573 364.609L127.231 354.026L106.425 342.902L100.767 353.485ZM118.402 359.318L118.402 387.334H130.402V359.318H118.402ZM124.402 393.334H172.194V381.334H124.402L124.402 393.334ZM178.194 387.334V364.88H166.194V387.334H178.194ZM172.194 358.88H145.002V370.88H172.194V358.88ZM151.002 364.88V339.748H139.002V364.88H151.002ZM145.002 345.748H193V333.748H145.002V345.748ZM193 301.836H199V295.836H193V301.836ZM193 326.968V332.968H199V326.968H193ZM65.486 326.968V320.968H64.1765L62.9861 321.513L65.486 326.968ZM50.654 333.766H44.654V343.116L53.1539 339.22L50.654 333.766ZM50.654 301.836L45.4181 298.905L44.654 300.271V301.836H50.654ZM63.22 279.382L68.4558 282.312L73.4535 273.382H63.22V279.382ZM50.654 279.382H44.654V285.382H50.654V279.382ZM50.654 263.314L47.5253 258.194L44.654 259.949V263.314H50.654ZM65.486 254.25V248.25H63.7978L62.3573 249.13L65.486 254.25ZM193 254.25H199V248.25H193V254.25ZM193 279.382V285.382H199V279.382H193ZM88.764 279.382V273.382H85.2178L83.5077 276.488L88.764 279.382ZM76.404 301.836L71.1477 298.942L66.2523 307.836H76.404V301.836ZM187 301.836V326.968H199V301.836H187ZM193 320.968H65.486V332.968H193V320.968ZM62.9861 321.513L48.1541 328.311L53.1539 339.22L67.9859 332.422L62.9861 321.513ZM56.654 333.766V301.836H44.654V333.766H56.654ZM55.8898 304.766L68.4558 282.312L57.9841 276.451L45.4181 298.905L55.8898 304.766ZM63.22 273.382H50.654V285.382H63.22V273.382ZM56.654 279.382V263.314H44.654V279.382H56.654ZM53.7827 268.433L68.6147 259.369L62.3573 249.13L47.5253 258.194L53.7827 268.433ZM65.486 260.25H193V248.25H65.486V260.25ZM187 254.25V279.382H199V254.25H187ZM193 273.382H88.764V285.382H193V273.382ZM83.5077 276.488L71.1477 298.942L81.6603 304.729L94.0203 282.275L83.5077 276.488ZM76.404 307.836H193V295.836H76.404V307.836ZM145.002 168.751V162.751H139.002V168.751H145.002ZM178.168 168.751L181.297 163.632L179.856 162.751H178.168V168.751ZM193 177.815H199V174.45L196.129 172.696L193 177.815ZM193 232.405L196.129 237.525L199 235.77V232.405H193ZM178.168 241.469V247.469H179.856L181.297 246.589L178.168 241.469ZM65.486 241.469L62.3573 246.589L63.7978 247.469H65.486V241.469ZM50.654 232.405H44.654V235.77L47.5253 237.525L50.654 232.405ZM50.654 177.815L47.5253 172.696L44.654 174.45V177.815H50.654ZM65.486 168.751V162.751H63.7978L62.3573 163.632L65.486 168.751ZM98.652 168.751H104.652V162.751H98.652V168.751ZM98.652 193.883V199.883H104.652V193.883H98.652ZM71.46 193.883V187.883H65.46V193.883H71.46ZM71.46 216.337H65.46V222.337H71.46V216.337ZM172.194 216.337V222.337H178.194V216.337H172.194ZM172.194 193.883H178.194V187.883H172.194V193.883ZM145.002 193.883H139.002V199.883H145.002V193.883ZM145.002 174.751H178.168V162.751H145.002V174.751ZM175.039 173.871L189.871 182.935L196.129 172.696L181.297 163.632L175.039 173.871ZM187 177.815V232.405H199V177.815H187ZM189.871 227.286L175.039 236.35L181.297 246.589L196.129 237.525L189.871 227.286ZM178.168 235.469H65.486V247.469H178.168V235.469ZM68.6147 236.35L53.7827 227.286L47.5253 237.525L62.3573 246.589L68.6147 236.35ZM56.654 232.405V177.815H44.654V232.405H56.654ZM53.7827 182.935L68.6147 173.871L62.3573 163.632L47.5253 172.696L53.7827 182.935ZM65.486 174.751H98.652V162.751H65.486V174.751ZM92.652 168.751V193.883H104.652V168.751H92.652ZM98.652 187.883H71.46V199.883H98.652V187.883ZM65.46 193.883V216.337H77.46V193.883H65.46ZM71.46 222.337H172.194V210.337H71.46V222.337ZM178.194 216.337V193.883H166.194V216.337H178.194ZM172.194 187.883H145.002V199.883H172.194V187.883ZM151.002 193.883V168.751H139.002V193.883H151.002ZM193 130.839H199V124.839H193V130.839ZM193 155.971V161.971H199V155.971H193ZM65.486 155.971V149.971H64.1765L62.9861 150.517L65.486 155.971ZM50.654 162.769H44.654V172.12L53.1539 168.224L50.654 162.769ZM50.654 137.431L48.2172 131.949L44.654 133.532V137.431H50.654ZM65.486 130.839V124.839H64.2127L63.0492 125.357L65.486 130.839ZM187 130.839V155.971H199V130.839H187ZM193 149.971H65.486V161.971H193V149.971ZM62.9861 150.517L48.1541 157.315L53.1539 168.224L67.9859 161.426L62.9861 150.517ZM56.654 162.769V137.431H44.654V162.769H56.654ZM53.0908 142.914L67.9228 136.322L63.0492 125.357L48.2172 131.949L53.0908 142.914ZM65.486 136.839H193V124.839H65.486V136.839ZM71.46 93.0191H65.46V99.0191H71.46V93.0191ZM103.596 93.0191V99.0191H109.596V93.0191H103.596ZM103.596 70.5651H109.596V64.5651H103.596V70.5651ZM71.46 70.5651V64.5651H65.46V70.5651H71.46ZM178.168 93.0191V99.0191H179.478L180.668 98.4735L178.168 93.0191ZM193 86.2211H199V76.8709L190.5 80.7667L193 86.2211ZM193 118.151V124.151H199V118.151H193ZM65.486 118.151L62.3573 123.271L63.7978 124.151H65.486V118.151ZM50.654 109.087H44.654V112.452L47.5253 114.207L50.654 109.087ZM50.654 54.4971L47.5253 49.3774L44.654 51.1321V54.4971H50.654ZM65.486 45.4331V39.4331H63.7978L62.3573 40.3134L65.486 45.4331ZM178.168 45.4331V51.4331H179.478L180.668 50.8875L178.168 45.4331ZM193 38.6351H199V29.2849L190.5 33.1807L193 38.6351ZM193 70.5651V76.5651H199V70.5651H193ZM124.402 70.5651V64.5651H118.402V70.5651H124.402ZM124.402 93.0191H118.402V99.0191H124.402V93.0191ZM71.46 99.0191H103.596V87.0191H71.46V99.0191ZM109.596 93.0191V70.5651H97.596V93.0191H109.596ZM103.596 64.5651H71.46V76.5651H103.596V64.5651ZM65.46 70.5651V93.0191H77.46V70.5651H65.46ZM180.668 98.4735L195.5 91.6755L190.5 80.7667L175.668 87.5647L180.668 98.4735ZM187 86.2211V118.151H199V86.2211H187ZM193 112.151H65.486V124.151H193V112.151ZM68.6147 113.031L53.7827 103.967L47.5253 114.207L62.3573 123.271L68.6147 113.031ZM56.654 109.087V54.4971H44.654V109.087H56.654ZM53.7827 59.6168L68.6147 50.5528L62.3573 40.3134L47.5253 49.3774L53.7827 59.6168ZM65.486 51.4331H178.168V39.4331H65.486V51.4331ZM180.668 50.8875L195.5 44.0895L190.5 33.1807L175.668 39.9787L180.668 50.8875ZM187 38.6351V70.5651H199V38.6351H187ZM193 64.5651H124.402V76.5651H193V64.5651ZM118.402 70.5651V93.0191H130.402V70.5651H118.402ZM124.402 99.0191H178.168V87.0191H124.402V99.0191Z" fill="#FEFEFE" fill-opacity="0.3" mask="url(#path-1-outside-1_378_979)"/>
</svg>
