<svg width="24" height="28" viewBox="0 0 24 28" fill="none" xmlns="http://www.w3.org/2000/svg">
<g id="tiktok 1" clip-path="url(#clip0_1_32)">
<path id="Vector" d="M23.9998 11.94C21.6404 11.945 19.3392 11.22 17.4212 9.86758V19.2965C17.4206 21.0428 16.8785 22.7472 15.8671 24.182C14.8558 25.6167 13.4236 26.7133 11.762 27.3251C10.1005 27.9368 8.28875 28.0346 6.56919 27.6053C4.84962 27.1761 3.3042 26.2402 2.13961 24.9229C0.975014 23.6056 0.24677 21.9697 0.0522744 20.2339C-0.142222 18.4982 0.206302 16.7453 1.05123 15.2099C1.89617 13.6744 3.19722 12.4294 4.7804 11.6416C6.36358 10.8537 8.15339 10.5604 9.91048 10.801V15.5418C9.10705 15.2928 8.24425 15.3001 7.44527 15.5626C6.6463 15.8251 5.952 16.3294 5.46152 17.0034C4.97104 17.6775 4.70945 18.4869 4.71411 19.316C4.71877 20.1451 4.98943 20.9516 5.48745 21.6203C5.98547 22.289 6.68539 22.7856 7.48726 23.0394C8.28913 23.2932 9.15196 23.2911 9.95255 23.0334C10.7531 22.7757 11.4505 22.2756 11.9452 21.6045C12.4398 20.9334 12.7064 20.1256 12.7069 19.2965V0.871094H17.4212C17.4185 1.26358 17.4526 1.65547 17.523 2.0418C17.6869 2.90295 18.0275 3.72215 18.524 4.44933C19.0205 5.17651 19.6624 5.79639 20.4105 6.27109C21.4753 6.96341 22.7236 7.33204 23.9998 7.33105V11.94Z" fill="white"/>
</g>
<defs>
<clipPath id="clip0_1_32">
<rect width="24" height="27" fill="white" transform="translate(-0.000244141 0.871094)"/>
</clipPath>
</defs>
</svg>
